<svg id="Capa_1" enable-background="new 0 0 512 512" height="512" viewBox="0 0 512 512" width="512" xmlns="http://www.w3.org/2000/svg"><g><g><g fill="#ffde55"><path d="m122.126 397h-71.689c-6.134 0-11.649 3.734-13.927 9.429l-34 85c-3.941 9.853 3.315 20.571 13.927 20.571h139.689c10.612 0 17.868-10.718 13.927-20.571l-34-85c-2.278-5.695-7.794-9.429-13.927-9.429z"/><path d="m291.845 397h-71.689c-6.134 0-11.649 3.734-13.927 9.429l-34 85c-3.941 9.853 3.315 20.571 13.927 20.571h139.689c10.612 0 17.868-10.718 13.927-20.571l-34-85c-2.278-5.695-7.794-9.429-13.927-9.429z"/><path d="m461.563 397h-71.689c-6.134 0-11.649 3.734-13.927 9.429l-34 85c-3.941 9.853 3.315 20.571 13.927 20.571h139.689c10.612 0 17.868-10.718 13.927-20.571l-34-85c-2.278-5.695-7.793-9.429-13.927-9.429z"/></g><g><path d="m339.772 491.429-34-85c-2.278-5.695-7.794-9.429-13.927-9.429h-35.845v115h69.845c10.611 0 17.868-10.718 13.927-20.571z" fill="#ffcd00"/><g><path d="m509.49 491.429-34-85c-2.278-5.695-7.794-9.429-13.927-9.429h-35.845v115h69.845c10.612 0 17.868-10.718 13.927-20.571z" fill="#ffcd00"/></g><path d="m170.053 491.429-34-85c-2.278-5.695-7.794-9.429-13.927-9.429h-35.845v115h69.845c10.612 0 17.868-10.718 13.927-20.571z" fill="#ffcd00"/></g></g><g fill="#ffde55"><path d="m206.985 282h-71.689c-6.134 0-11.649 3.734-13.927 9.429l-34 85c-3.941 9.853 3.315 20.571 13.927 20.571h139.689c10.612 0 17.868-10.718 13.927-20.571l-34-85c-2.278-5.695-7.793-9.429-13.927-9.429z"/><path d="m376.704 282h-71.689c-6.134 0-11.649 3.734-13.927 9.429l-34 85c-3.941 9.853 3.315 20.571 13.927 20.571h139.689c10.612 0 17.868-10.718 13.927-20.571l-34-85c-2.278-5.695-7.794-9.429-13.927-9.429z"/></g><g><g><path d="m254.912 376.429-34-85c-2.278-5.695-7.794-9.429-13.927-9.429h-35.845v115h69.845c10.612 0 17.869-10.718 13.927-20.571z" fill="#ffcd00"/></g><g><path d="m424.631 376.429-34-85c-2.278-5.695-7.794-9.429-13.927-9.429h-35.845v115h69.845c10.612 0 17.868-10.718 13.927-20.571z" fill="#ffcd00"/></g></g><g><path d="m291.845 167h-71.689c-6.134 0-11.649 3.734-13.927 9.429l-34 85c-3.941 9.853 3.315 20.571 13.927 20.571h139.689c10.612 0 17.868-10.718 13.927-20.571l-34-85c-2.278-5.695-7.794-9.429-13.927-9.429z" fill="#ffde55"/></g><g><g><path d="m339.772 261.429-34-85c-2.278-5.695-7.794-9.429-13.927-9.429h-35.845v115h69.845c10.611 0 17.868-10.718 13.927-20.571z" fill="#ffcd00"/></g></g><path d="m407.988 203.257c-4.142-7.174-1.684-16.348 5.49-20.49l76.019-43.89c7.174-4.142 16.348-1.684 20.49 5.49 4.142 7.174 1.684 16.348-5.49 20.49l-76.019 43.89c-7.174 4.142-16.348 1.684-20.49-5.49z" fill="#ffe89c"/><path d="m347.252 158.295c-7.174-4.142-9.632-13.316-5.49-20.49l43.89-76.019c4.142-7.174 13.316-9.632 20.49-5.49 7.174 4.142 9.632 13.316 5.49 20.49l-43.89 76.019c-4.142 7.174-13.316 9.632-20.49 5.49z" fill="#ffe89c"/><g fill="#fffac1"><path d="m83.522 208.747-76.019-43.89c-7.174-4.142-9.632-13.316-5.49-20.49 4.142-7.174 13.316-9.632 20.49-5.49l76.019 43.89c7.174 4.142 9.632 13.316 5.49 20.49-4.142 7.174-13.316 9.632-20.49 5.49z"/><path d="m256 117.779c-8.284 0-15-6.716-15-15v-87.779c0-8.284 6.716-15 15-15 8.284 0 15 6.716 15 15v87.78c0 8.284-6.716 14.999-15 14.999z"/><path d="m144.258 152.805-43.89-76.019c-4.142-7.174-1.684-16.348 5.49-20.49 7.174-4.142 16.348-1.684 20.49 5.49l43.89 76.019c4.142 7.174 1.684 16.348-5.49 20.49-7.174 4.142-16.348 1.684-20.49-5.49z"/></g><path d="m256 0v117.779c8.284 0 15-6.716 15-15v-87.779c0-8.284-6.716-15-15-15z" fill="#ffe89c"/></g></svg>