<?xml version="1.0" encoding="iso-8859-1"?>
<!-- Generator: Adobe Illustrator 19.0.0, SVG Export Plug-In . SVG Version: 6.00 Build 0)  -->
<svg version="1.1" id="Capa_1" xmlns="http://www.w3.org/2000/svg" xmlns:xlink="http://www.w3.org/1999/xlink" x="0px" y="0px"
	 viewBox="0 0 512.008 512.008" style="enable-background:new 0 0 512.008 512.008;" xml:space="preserve">
<path style="fill:#455A64;" d="M167.556,35.144L136.388,3.976c-0.251-0.302-0.522-0.587-0.811-0.853
	c-4.165-4.164-10.917-4.164-15.083,0l-64,64c-4.164,4.165-4.164,10.917,0,15.083l32,32c4.165,4.164,10.917,4.164,15.083,0l64-64
	C171.722,46.037,171.712,39.301,167.556,35.144z"/>
<path style="fill:#FFC107;" d="M405.338,0.008H234.671c-29.455,0-53.333,23.878-53.333,53.333c0,41.237-33.429,74.667-74.667,74.667
	c-29.455,0-53.333,23.878-53.333,53.333v277.333c0,29.455,23.878,53.333,53.333,53.333h298.667
	c29.455,0,53.333-23.878,53.333-53.333V53.342C458.671,23.887,434.793,0.008,405.338,0.008z M416.004,96.008
	c0,17.673-14.327,32-32,32h-128c-17.673,0-32-14.327-32-32V74.675c0-17.673,14.327-32,32-32h128c17.673,0,32,14.327,32,32V96.008z"
	/>
<g>
	<path style="fill:#FFE082;" d="M341.338,256.008c-5.891,0.011-10.675-4.757-10.686-10.648c-0.005-2.84,1.123-5.565,3.134-7.571
		l42.667-42.667c4.093-4.237,10.845-4.355,15.083-0.262c4.237,4.093,4.354,10.845,0.262,15.083
		c-0.086,0.089-0.173,0.176-0.262,0.262l-42.667,42.667C346.873,254.874,344.164,256.002,341.338,256.008z"/>
	<path style="fill:#FFE082;" d="M170.671,256.008c-2.831,0.005-5.548-1.115-7.552-3.115l-42.667-42.667
		c-4.092-4.237-3.975-10.99,0.262-15.083c4.134-3.992,10.687-3.992,14.82,0l42.667,42.667c4.159,4.172,4.149,10.926-0.024,15.085
		C176.184,254.883,173.486,256.002,170.671,256.008z"/>
	<path style="fill:#FFE082;" d="M128.004,448.008c-5.891,0.011-10.675-4.757-10.686-10.648c-0.005-2.84,1.123-5.565,3.134-7.571
		l42.667-42.667c4.237-4.093,10.99-3.975,15.083,0.262c3.993,4.134,3.993,10.687,0,14.821l-42.667,42.667
		C133.539,446.874,130.831,448.002,128.004,448.008z"/>
	<path style="fill:#FFE082;" d="M384.004,448.008c-2.831,0.005-5.548-1.115-7.552-3.115l-42.667-42.667
		c-4.093-4.237-3.976-10.99,0.261-15.083c4.134-3.993,10.688-3.993,14.821,0l42.667,42.667c4.159,4.172,4.149,10.926-0.023,15.085
		C389.518,446.883,386.819,448.002,384.004,448.008z"/>
	<path style="fill:#FFE082;" d="M341.338,405.342H170.671c-5.891,0-10.667-4.776-10.667-10.667V245.342
		c0-5.891,4.776-10.667,10.667-10.667h170.667c5.891,0,10.667,4.776,10.667,10.667v149.333
		C352.004,400.566,347.229,405.342,341.338,405.342z M181.338,384.008h149.333v-128H181.338V384.008z"/>
</g>
<g>
</g>
<g>
</g>
<g>
</g>
<g>
</g>
<g>
</g>
<g>
</g>
<g>
</g>
<g>
</g>
<g>
</g>
<g>
</g>
<g>
</g>
<g>
</g>
<g>
</g>
<g>
</g>
<g>
</g>
</svg>
