<svg height="512" viewBox="0 0 128 128" width="512" xmlns="http://www.w3.org/2000/svg"><g id="Circle_Grid" data-name="Circle Grid"><circle cx="64" cy="64" fill="#ef5261" r="64"/></g><g id="icon"><path d="m94.067 38.033v64.233a2.733 2.733 0 0 1 -2.734 2.734h-54.666a2.733 2.733 0 0 1 -2.733-2.733v-76.534a2.733 2.733 0 0 1 2.733-2.733h42.366z" fill="#eeefee"/><path d="m44.696 64h38.267v31.604h-38.267z" fill="#f6c863"/><g fill="#eab54e"><path d="m83.019 97.142h-38.038a1.367 1.367 0 0 1 -1.367-1.367v-31.775a1.367 1.367 0 0 1 1.367-1.367h38.038a1.367 1.367 0 0 1 1.367 1.367v31.775a1.367 1.367 0 0 1 -1.367 1.367zm-36.672-2.734h35.306v-29.041h-35.306z"/><path d="m83.019 76.186h-26.019a1.367 1.367 0 0 1 -1.367-1.367v-10.819a1.367 1.367 0 0 1 1.367-1.367h26.019a1.367 1.367 0 0 1 1.367 1.367v10.819a1.367 1.367 0 0 1 -1.367 1.367zm-24.656-2.733h23.29v-8.086h-23.29z"/><path d="m70.008 76.186a1.367 1.367 0 0 1 -1.367-1.367v-10.819a1.367 1.367 0 1 1 2.733 0v10.819a1.367 1.367 0 0 1 -1.366 1.367z"/><path d="m83.019 86.892h-38.038a1.367 1.367 0 0 1 0-2.733h38.038a1.367 1.367 0 0 1 0 2.733z"/><path d="m70.321 97.142a1.367 1.367 0 0 1 -1.367-1.367v-10.25a1.367 1.367 0 1 1 2.733 0v10.25a1.367 1.367 0 0 1 -1.366 1.367z"/><path d="m57.679 97.142a1.367 1.367 0 0 1 -1.367-1.367v-10.25a1.367 1.367 0 0 1 2.733 0v10.25a1.367 1.367 0 0 1 -1.366 1.367z"/></g></g></svg>