<svg id="Capa_1" enable-background="new 0 0 512 512" height="512" viewBox="0 0 512 512" width="512" xmlns="http://www.w3.org/2000/svg"><g><g><path d="m166 370.529 30 49.501-30 49.499-166-5.1v-88.8z" fill="#ffe666"/></g><path d="m0 464.429 166 5.1 30-49.499-.002-.002h-195.998z" fill="#ffc24d"/><path d="m436 361.83 30 58.199-30 58.201-270-8.701v-99z" fill="#f3f5f9"/><path d="m166 469.529 270 8.701 30-58.202h-300z" fill="#e1e6f0"/><g id="Cigar_1_"><g><path d="m470.746 335.684-12.7-7.939c-6.182-3.867-37.046-24.463-37.046-50.215s30.864-46.348 37.046-50.215c10.825-6.826 22.954-18.882 22.954-24.785s-12.129-17.959-22.969-24.8l-12.671-7.983 15.894-25.371 12.7 7.939c6.182 3.867 37.046 24.463 37.046 50.215s-30.864 46.348-37.046 50.215c-10.825 6.826-22.954 18.882-22.954 24.785s12.129 17.959 22.969 24.8l12.671 7.983z" fill="#ffe6b3"/></g></g><path d="m512 359.429v121.2l-76-2.399v-116.4z" fill="#ffa54d"/><g><path d="m256 31.371s-34.126 52.291-29.361 121.096c-31.928-33.235-92.625-50.406-92.625-50.406s17.158 60.885 50.984 93.159c-27.867 5.357-69.158 28.826-69.158 28.826s49.237 33.178 85.885 29.39c-12.054 8.928-22.933 47.67-22.933 47.67s40.208-7.059 62.208-26.025v55.966h30v-55.966c22 18.966 62.207 26.027 62.207 26.027s-10.879-38.743-22.933-47.67c36.648 3.788 85.885-29.39 85.885-29.39s-41.292-23.469-69.158-28.826c33.827-32.274 50.984-93.159 50.984-93.159s-60.697 17.171-92.625 50.406c4.766-68.807-29.36-121.098-29.36-121.098z" fill="#8c6"/><path d="m271 331.047v-55.966c22 18.966 62.207 26.027 62.207 26.027s-10.879-38.743-22.933-47.67c36.648 3.788 85.885-29.39 85.885-29.39s-41.292-23.469-69.158-28.826c33.827-32.274 50.984-93.159 50.984-93.159s-60.697 17.171-92.625 50.406c4.766-68.807-29.36-121.098-29.36-121.098v299.676z" fill="#5ab348"/></g><path d="m512 420.028h-76v58.202l76 2.399z" fill="#f73"/></g></svg>