<svg height="512" viewBox="0 0 58 59" width="512" xmlns="http://www.w3.org/2000/svg"><g id="017---Marijuana-Leaf" fill="none"><path id="Shape" d="m29 59c-.5522847 0-1-.4477153-1-1v-11c0-.5522847.4477153-1 1-1s1 .4477153 1 1v11c0 .5522847-.4477153 1-1 1z" fill="#4c8056"/><path id="Shape" d="m58 21.63c.0770795-.1810083.0431725-.3902106-.0871339-.5376063-.1303063-.1473957-.3337727-.2066977-.5228661-.1523937-8.69 2.84-18.11 8.46-23.71 16.11h-.05c3.15-11.8.69-25.84-4.13-36.74-.0774296-.17969065-.2543369-.29609281-.45-.29609281s-.3725704.11640216-.45.29609281c-4.83 11-7.27 25-4.13 36.74h-.05c-5.6-7.58-14.99-13.25-23.76-16.11-.18909339-.054304-.3925598.004998-.52286613.1523937-.13030634.1473957-.16421332.356598-.08713387.5376063 3.6 7.99 9.95 16.57 17.95 21.37-5.0910141-.0727888-10.12410423 1.0868461-14.67 3.38-.20518359.1396635-.32798104.371794-.32798104.62s.12279745.4803365.32798104.62c5.19 2.55 11.45 4 17.27 3.1-1.2838254 2.0445644-2.1662337 4.3150689-2.6 6.69-.0255253.1883705.0517854.375985.2026105.4916863.150825.1157014.3520628.1417681.5273895.0683137 5.27-1.65 9.88-5.48 10.27-10.97.37 5.49 5 9.32 10.25 11 .1753267.0734544.3765645.0473877.5273895-.0683137.1508251-.1157013.2281358-.3033158.2026105-.4916863-.4306894-2.3742321-1.3096877-4.6446951-2.59-6.69 5.81.91 12.07-.55 17.27-3.1.2051836-.1396635.327981-.371794.327981-.62s-.1227974-.4803365-.327981-.62c-4.5402771-2.3019673-9.5698781-3.4718813-14.66-3.41 7.92-4.77 14.33-13.34 18-21.37z" fill="#24ae5f"/><g fill="#4fba6f"><path id="Shape" d="m35 25.69c0 9.64-2.85 17.22-5.93 21.24s0 0-.05 0c-3.18-4.04-6.02-11.62-6.02-21.24.1719598-8.7448237 2.0575558-17.37100095 5.55-25.39.0774296-.17969065.2543369-.29609281.45-.29609281s.3725704.11640216.45.29609281c3.4924442 8.01899905 5.3780402 16.6451763 5.55 25.39z"/><path id="Shape" d="m29 47c-.0290535.0121555-.053544.0331474-.07.06-2.3822108 1.9594998-5.2632719 3.2165012-8.32 3.63 0 .13-7.93 1.5-17.27-3.09-.20518359-.1396635-.32798104-.371794-.32798104-.62s.12279745-.4803365.32798104-.62c10.92-5.37 21-3.78 25.6.55z"/><path id="Shape" d="m54.67 47.62c-5.19 2.55-11.45 4-17.27 3.1-3.1001452-.404017-6.0173169-1.6959073-8.4-3.72 1.74-1.74 6-3.76 11-4 5.0792518-.0741408 10.1013914 1.0784814 14.64 3.36.2172654.1329882.3521761.3671644.3582395.6218276.0060634.2546633-.1175494.4949948-.3282395.6381724z"/></g></g></svg>