<?xml version="1.0" encoding="iso-8859-1"?>
<!-- Generator: Adobe Illustrator 19.0.0, SVG Export Plug-In . SVG Version: 6.00 Build 0)  -->
<svg version="1.1" id="Capa_1" xmlns="http://www.w3.org/2000/svg" xmlns:xlink="http://www.w3.org/1999/xlink" x="0px" y="0px"
	 viewBox="0 0 512 512" style="enable-background:new 0 0 512 512;" xml:space="preserve">
<rect x="241.159" y="300.974" style="fill:#10BB67;" width="29.982" height="210.876"/>
<rect x="256.15" y="300.974" style="fill:#0CA656;" width="14.991" height="210.876"/>
<path style="fill:#10BB67;" d="M512,300.974l-11.393-10.794c-1.799-1.801-42.976-39.577-102.04-47.673
	c41.076-49.171,47.072-112.134,47.373-114.834l1.499-17.988l-17.988,1.499c-2.4,0.3-53.07,5.096-98.643,35.379
	c-5.096-74.656-61.464-133.221-64.162-135.621L256.15,0.15l-10.493,10.794c-2.699,2.4-59.066,60.964-64.162,135.92
	c-45.574-30.583-96.245-35.379-98.644-35.679l-17.988-1.499l1.499,17.988c0.3,2.699,6.297,65.662,47.373,114.834
	c-59.064,8.096-100.241,45.872-102.04,47.673L0,300.974l11.693,11.094c2.4,2.099,52.568,47.072,120.629,48.871
	c-11.393,24.586-14.391,45.273-14.691,46.473l-2.4,17.691l21.588-0.601c52.469-1.499,97.143-31.781,119.329-75.256
	c22.187,43.475,66.86,73.758,119.329,75.256l21.588,0.601l-2.398-17.691c-0.3-1.198-3.298-21.886-14.691-46.473
	c69.259-1.799,118.83-47.072,120.629-49.171L512,300.974z"/>
<path style="fill:#0CA656;" d="M500.607,311.767c-1.799,2.099-51.37,47.373-120.629,49.171
	c11.393,24.586,14.391,45.273,14.691,46.473l2.4,17.691l-21.588-0.601c-52.469-1.499-97.143-31.781-119.329-75.256V0.15
	l10.493,10.794c2.699,2.4,59.066,60.964,64.162,135.621c45.574-30.282,96.245-35.078,98.643-35.379l17.988-1.499l-1.499,17.988
	c-0.3,2.699-6.297,65.662-47.373,114.834c59.064,8.096,100.241,45.872,102.04,47.673l11.393,10.794L500.607,311.767z"/>
<g>
</g>
<g>
</g>
<g>
</g>
<g>
</g>
<g>
</g>
<g>
</g>
<g>
</g>
<g>
</g>
<g>
</g>
<g>
</g>
<g>
</g>
<g>
</g>
<g>
</g>
<g>
</g>
<g>
</g>
</svg>
